REM DIRINDEX 1\2,1\3,1\4,1\5,1\6
REM DIRNAME folder01,folder02,folder03,folder04,folder05,folder06
TITLE ""
FILE "Disc1Track55.mp3" MP3
  TRACK 01 AUDIO
    TITLE "3:cjc030_01306"
    INDEX 01 00:00:00
  TRACK 02 AUDIO
    TITLE "0:"
    INDEX 01 00:00:72
  TRACK 03 AUDIO
    TITLE "4:cjc030_01307"
    INDEX 01 00:01:05
  TRACK 04 AUDIO
    TITLE "0:"
    INDEX 01 00:03:59
  TRACK 05 AUDIO
    TITLE "5:cjc030_01308"
    INDEX 01 00:03:66
  TRACK 06 AUDIO
    TITLE "0:"
    INDEX 01 00:04:68
  TRACK 07 AUDIO
    TITLE "6:cjc030_01309"
    INDEX 01 00:05:07
  TRACK 08 AUDIO
    TITLE "0:"
    INDEX 01 00:09:53
  TRACK 09 AUDIO
    TITLE "3:cjc030_01310"
    INDEX 01 00:10:27
  TRACK 10 AUDIO
    TITLE "0:"
    INDEX 01 00:11:37
  TRACK 11 AUDIO
    TITLE "4:cjc030_01311"
    INDEX 01 00:11:44
  TRACK 12 AUDIO
    TITLE "0:"
    INDEX 01 00:13:41
  TRACK 13 AUDIO
    TITLE "5:cjc030_01312"
    INDEX 01 00:13:49
  TRACK 14 AUDIO
    TITLE "0:"
    INDEX 01 00:14:60
  TRACK 15 AUDIO
    TITLE "3:cjc030_01313"
    INDEX 01 00:15:42
  TRACK 16 AUDIO
    TITLE "0:"
    INDEX 01 00:16:57
  TRACK 17 AUDIO
    TITLE "4:cjc030_01314"
    INDEX 01 00:16:67
  TRACK 18 AUDIO
    TITLE "0:"
    INDEX 01 00:18:68
  TRACK 19 AUDIO
    TITLE "5:cjc030_01315"
    INDEX 01 00:19:01
  TRACK 20 AUDIO
    TITLE "0:"
    INDEX 01 00:20:16
  TRACK 21 AUDIO
    TITLE "6:cjc030_01316"
    INDEX 01 00:20:32
  TRACK 22 AUDIO
    TITLE "0:"
    INDEX 01 00:24:47
  TRACK 23 AUDIO
    TITLE "3:cjc030_01317"
    INDEX 01 00:25:21
  TRACK 24 AUDIO
    TITLE "0:"
    INDEX 01 00:26:38
  TRACK 25 AUDIO
    TITLE "4:cjc030_01318"
    INDEX 01 00:26:46
  TRACK 26 AUDIO
    TITLE "0:"
    INDEX 01 00:29:09
  TRACK 27 AUDIO
    TITLE "5:cjc030_01319"
    INDEX 01 00:29:17
  TRACK 28 AUDIO
    TITLE "0:"
    INDEX 01 00:30:34
  TRACK 29 AUDIO
    TITLE "6:cjc030_01320"
    INDEX 01 00:30:48
  TRACK 30 AUDIO
    TITLE "0:"
    INDEX 01 00:34:61
  TRACK 31 AUDIO
    TITLE "3:cjc030_01321"
    INDEX 01 00:35:33
  TRACK 32 AUDIO
    TITLE "0:"
    INDEX 01 00:36:35
  TRACK 33 AUDIO
    TITLE "4:cjc030_01322"
    INDEX 01 00:36:44
  TRACK 34 AUDIO
    TITLE "0:"
    INDEX 01 00:38:63
  TRACK 35 AUDIO
    TITLE "5:cjc030_01323"
    INDEX 01 00:38:69
  TRACK 36 AUDIO
    TITLE "0:"
    INDEX 01 00:39:74
  TRACK 37 AUDIO
    TITLE "6:cjc030_01324"
    INDEX 01 00:40:11
  TRACK 38 AUDIO
    TITLE "0:"
    INDEX 01 00:42:08
  TRACK 39 AUDIO
    TITLE "3:cjc030_01325"
    INDEX 01 00:42:55
  TRACK 40 AUDIO
    TITLE "0:"
    INDEX 01 00:43:56
  TRACK 41 AUDIO
    TITLE "4:cjc030_01326"
    INDEX 01 00:43:64
  TRACK 42 AUDIO
    TITLE "0:"
    INDEX 01 00:47:07
  TRACK 43 AUDIO
    TITLE "5:cjc030_01327"
    INDEX 01 00:47:15
  TRACK 44 AUDIO
    TITLE "0:"
    INDEX 01 00:48:18
  TRACK 45 AUDIO
    TITLE "6:cjc030_01328"
    INDEX 01 00:48:30
  TRACK 46 AUDIO
    TITLE "0:"
    INDEX 01 00:53:11
  TRACK 47 AUDIO
    TITLE "3:cjc030_01329"
    INDEX 01 00:53:58
  TRACK 48 AUDIO
    TITLE "0:"
    INDEX 01 00:54:54
  TRACK 49 AUDIO
    TITLE "4:cjc030_01330"
    INDEX 01 00:54:64
  TRACK 50 AUDIO
    TITLE "0:"
    INDEX 01 00:55:67
  TRACK 51 AUDIO
    TITLE "5:cjc030_01331"
    INDEX 01 00:56:00
  TRACK 52 AUDIO
    TITLE "0:"
    INDEX 01 00:56:74
  TRACK 53 AUDIO
    TITLE "6:cjc030_01332"
    INDEX 01 00:57:09
  TRACK 54 AUDIO
    TITLE "0:"
    INDEX 01 00:59:08
  TRACK 55 AUDIO
    TITLE "3:cjc030_01333"
    INDEX 01 00:59:55
  TRACK 56 AUDIO
    TITLE "0:"
    INDEX 01 01:00:64
  TRACK 57 AUDIO
    TITLE "4:cjc030_01334"
    INDEX 01 01:00:74
  TRACK 58 AUDIO
    TITLE "0:"
    INDEX 01 01:02:12
  TRACK 59 AUDIO
    TITLE "5:cjc030_01335"
    INDEX 01 01:02:22
  TRACK 60 AUDIO
    TITLE "0:"
    INDEX 01 01:03:31
  TRACK 61 AUDIO
    TITLE "3:cjc030_01336"
    INDEX 01 01:04:09
  TRACK 62 AUDIO
    TITLE "0:"
    INDEX 01 01:05:22
  TRACK 63 AUDIO
    TITLE "4:cjc030_01337"
    INDEX 01 01:05:30
  TRACK 64 AUDIO
    TITLE "0:"
    INDEX 01 01:07:55
  TRACK 65 AUDIO
    TITLE "5:cjc030_01338"
    INDEX 01 01:07:68
  TRACK 66 AUDIO
    TITLE "0:"
    INDEX 01 01:09:01
  TRACK 67 AUDIO
    TITLE "6:cjc030_01339"
    INDEX 01 01:09:14
  TRACK 68 AUDIO
    TITLE "0:"
    INDEX 01 01:14:17
  TRACK 69 AUDIO
    TITLE "3:cjc030_01340"
    INDEX 01 01:14:66
  TRACK 70 AUDIO
    TITLE "0:"
    INDEX 01 01:16:12
  TRACK 71 AUDIO
    TITLE "4:cjc030_01341"
    INDEX 01 01:16:20
  TRACK 72 AUDIO
    TITLE "0:"
    INDEX 01 01:18:17
  TRACK 73 AUDIO
    TITLE "5:cjc030_01342"
    INDEX 01 01:18:27
  TRACK 74 AUDIO
    TITLE "0:"
    INDEX 01 01:19:46
  TRACK 75 AUDIO
    TITLE "3:cjc030_01343"
    INDEX 01 01:20:26
  TRACK 76 AUDIO
    TITLE "0:"
    INDEX 01 01:21:27
  TRACK 77 AUDIO
    TITLE "4:cjc030_01344"
    INDEX 01 01:21:35
  TRACK 78 AUDIO
    TITLE "0:"
    INDEX 01 01:22:23
  TRACK 79 AUDIO
    TITLE "5:cjc030_01345"
    INDEX 01 01:22:29
  TRACK 80 AUDIO
    TITLE "0:"
    INDEX 01 01:23:34
  TRACK 81 AUDIO
    TITLE "3:cjc030_01346"
    INDEX 01 01:24:16
  TRACK 82 AUDIO
    TITLE "0:"
    INDEX 01 01:25:33
  TRACK 83 AUDIO
    TITLE "4:cjc030_01347"
    INDEX 01 01:25:41
  TRACK 84 AUDIO
    TITLE "0:"
    INDEX 01 01:28:24
  TRACK 85 AUDIO
    TITLE "5:cjc030_01348"
    INDEX 01 01:28:33
  TRACK 86 AUDIO
    TITLE "0:"
    INDEX 01 01:29:50
